<?xml version="1.0" encoding="utf-8" standalone="no"?>
<!DOCTYPE svg PUBLIC "-//W3C//DTD SVG 1.1//EN"
  "http://www.w3.org/Graphics/SVG/1.1/DTD/svg11.dtd">
<svg xmlns:xlink="http://www.w3.org/1999/xlink" width="1008pt" height="432pt" viewBox="0 0 1008 432" xmlns="http://www.w3.org/2000/svg" version="1.1">
 <metadata>
  <rdf:RDF xmlns:dc="http://purl.org/dc/elements/1.1/" xmlns:cc="http://creativecommons.org/ns#" xmlns:rdf="http://www.w3.org/1999/02/22-rdf-syntax-ns#">
   <cc:Work>
    <dc:type rdf:resource="http://purl.org/dc/dcmitype/StillImage"/>
    <dc:date>2025-11-19T20:41:42.205936</dc:date>
    <dc:format>image/svg+xml</dc:format>
    <dc:creator>
     <cc:Agent>
      <dc:title>Matplotlib v3.10.3, https://matplotlib.org/</dc:title>
     </cc:Agent>
    </dc:creator>
   </cc:Work>
  </rdf:RDF>
 </metadata>
 <defs>
  <style type="text/css">*{stroke-linejoin: round; stroke-linecap: butt}</style>
 </defs>
 <g id="figure_1">
  <g id="patch_1">
   <path d="M 0 432 
L 1008 432 
L 1008 0 
L 0 0 
z
" style="fill: #ffffff"/>
  </g>
  <g id="axes_1">
   <g id="patch_2">
    <path d="M 126 384.48 
L 481.090909 384.48 
L 481.090909 51.84 
L 126 51.84 
z
" style="fill: #ffffff"/>
   </g>
   <g id="patch_3">
    <path d="M 142.140496 384.48 
L 160.709208 384.48 
L 160.709208 168.064416 
L 142.140496 168.064416 
z
" clip-path="url(#p6247e40c2c)" style="fill: #a1c9f4; stroke: #000000; stroke-linejoin: miter"/>
   </g>
   <g id="patch_4">
    <path d="M 213.558619 384.48 
L 232.127331 384.48 
L 232.127331 115.939728 
L 213.558619 115.939728 
z
" clip-path="url(#p6247e40c2c)" style="fill: #a1c9f4; stroke: #000000; stroke-linejoin: miter"/>
   </g>
   <g id="patch_5">
    <path d="M 284.976742 384.48 
L 303.545455 384.48 
L 303.545455 103.632048 
L 284.976742 103.632048 
z
" clip-path="url(#p6247e40c2c)" style="fill: #a1c9f4; stroke: #000000; stroke-linejoin: miter"/>
   </g>
   <g id="patch_6">
    <path d="M 356.394866 384.48 
L 374.963578 384.48 
L 374.963578 119.69856 
L 356.394866 119.69856 
z
" clip-path="url(#p6247e40c2c)" style="fill: #a1c9f4; stroke: #000000; stroke-linejoin: miter"/>
   </g>
   <g id="patch_7">
    <path d="M 427.812989 384.48 
L 446.381701 384.48 
L 446.381701 139.523904 
L 427.812989 139.523904 
z
" clip-path="url(#p6247e40c2c)" style="fill: #a1c9f4; stroke: #000000; stroke-linejoin: miter"/>
   </g>
   <g id="patch_8">
    <path d="M 160.709208 384.48 
L 179.27792 384.48 
L 179.27792 166.367952 
L 160.709208 166.367952 
z
" clip-path="url(#p6247e40c2c)" style="fill: #debb9b; stroke: #000000; stroke-linejoin: miter"/>
   </g>
   <g id="patch_9">
    <path d="M 232.127331 384.48 
L 250.696043 384.48 
L 250.696043 116.87112 
L 232.127331 116.87112 
z
" clip-path="url(#p6247e40c2c)" style="fill: #debb9b; stroke: #000000; stroke-linejoin: miter"/>
   </g>
   <g id="patch_10">
    <path d="M 303.545455 384.48 
L 322.114167 384.48 
L 322.114167 104.363856 
L 303.545455 104.363856 
z
" clip-path="url(#p6247e40c2c)" style="fill: #debb9b; stroke: #000000; stroke-linejoin: miter"/>
   </g>
   <g id="patch_11">
    <path d="M 374.963578 384.48 
L 393.53229 384.48 
L 393.53229 119.465712 
L 374.963578 119.465712 
z
" clip-path="url(#p6247e40c2c)" style="fill: #debb9b; stroke: #000000; stroke-linejoin: miter"/>
   </g>
   <g id="patch_12">
    <path d="M 446.381701 384.48 
L 464.950413 384.48 
L 464.950413 143.715168 
L 446.381701 143.715168 
z
" clip-path="url(#p6247e40c2c)" style="fill: #debb9b; stroke: #000000; stroke-linejoin: miter"/>
   </g>
   <g id="matplotlib.axis_1">
    <g id="xtick_1">
     <g id="line2d_1">
      <defs>
       <path id="me67aac023d" d="M 0 0 
L 0 3.5 
" style="stroke: #000000; stroke-width: 0.8"/>
      </defs>
      <g>
       <use xlink:href="#me67aac023d" x="160.709208" y="384.48" style="stroke: #000000; stroke-width: 0.8"/>
      </g>
     </g>
     <g id="text_1">
      <!-- Normal-CIL -->
      <g transform="translate(133.061552 399.078438) scale(0.1 -0.1)">
       <defs>
        <path id="DejaVuSans-4e" d="M 628 4666 
L 1478 4666 
L 3547 763 
L 3547 4666 
L 4159 4666 
L 4159 0 
L 3309 0 
L 1241 3903 
L 1241 0 
L 628 0 
L 628 4666 
z
" transform="scale(0.015625)"/>
        <path id="DejaVuSans-6f" d="M 1959 3097 
Q 1497 3097 1228 2736 
Q 959 2375 959 1747 
Q 959 1119 1226 758 
Q 1494 397 1959 397 
Q 2419 397 2687 759 
Q 2956 1122 2956 1747 
Q 2956 2369 2687 2733 
Q 2419 3097 1959 3097 
z
M 1959 3584 
Q 2709 3584 3137 3096 
Q 3566 2609 3566 1747 
Q 3566 888 3137 398 
Q 2709 -91 1959 -91 
Q 1206 -91 779 398 
Q 353 888 353 1747 
Q 353 2609 779 3096 
Q 1206 3584 1959 3584 
z
" transform="scale(0.015625)"/>
        <path id="DejaVuSans-72" d="M 2631 2963 
Q 2534 3019 2420 3045 
Q 2306 3072 2169 3072 
Q 1681 3072 1420 2755 
Q 1159 2438 1159 1844 
L 1159 0 
L 581 0 
L 581 3500 
L 1159 3500 
L 1159 2956 
Q 1341 3275 1631 3429 
Q 1922 3584 2338 3584 
Q 2397 3584 2469 3576 
Q 2541 3569 2628 3553 
L 2631 2963 
z
" transform="scale(0.015625)"/>
        <path id="DejaVuSans-6d" d="M 3328 2828 
Q 3544 3216 3844 3400 
Q 4144 3584 4550 3584 
Q 5097 3584 5394 3201 
Q 5691 2819 5691 2113 
L 5691 0 
L 5113 0 
L 5113 2094 
Q 5113 2597 4934 2840 
Q 4756 3084 4391 3084 
Q 3944 3084 3684 2787 
Q 3425 2491 3425 1978 
L 3425 0 
L 2847 0 
L 2847 2094 
Q 2847 2600 2669 2842 
Q 2491 3084 2119 3084 
Q 1678 3084 1418 2786 
Q 1159 2488 1159 1978 
L 1159 0 
L 581 0 
L 581 3500 
L 1159 3500 
L 1159 2956 
Q 1356 3278 1631 3431 
Q 1906 3584 2284 3584 
Q 2666 3584 2933 3390 
Q 3200 3197 3328 2828 
z
" transform="scale(0.015625)"/>
        <path id="DejaVuSans-61" d="M 2194 1759 
Q 1497 1759 1228 1600 
Q 959 1441 959 1056 
Q 959 750 1161 570 
Q 1363 391 1709 391 
Q 2188 391 2477 730 
Q 2766 1069 2766 1631 
L 2766 1759 
L 2194 1759 
z
M 3341 1997 
L 3341 0 
L 2766 0 
L 2766 531 
Q 2569 213 2275 61 
Q 1981 -91 1556 -91 
Q 1019 -91 701 211 
Q 384 513 384 1019 
Q 384 1609 779 1909 
Q 1175 2209 1959 2209 
L 2766 2209 
L 2766 2266 
Q 2766 2663 2505 2880 
Q 2244 3097 1772 3097 
Q 1472 3097 1187 3025 
Q 903 2953 641 2809 
L 641 3341 
Q 956 3463 1253 3523 
Q 1550 3584 1831 3584 
Q 2591 3584 2966 3190 
Q 3341 2797 3341 1997 
z
" transform="scale(0.015625)"/>
        <path id="DejaVuSans-6c" d="M 603 4863 
L 1178 4863 
L 1178 0 
L 603 0 
L 603 4863 
z
" transform="scale(0.015625)"/>
        <path id="DejaVuSans-2d" d="M 313 2009 
L 1997 2009 
L 1997 1497 
L 313 1497 
L 313 2009 
z
" transform="scale(0.015625)"/>
        <path id="DejaVuSans-43" d="M 4122 4306 
L 4122 3641 
Q 3803 3938 3442 4084 
Q 3081 4231 2675 4231 
Q 1875 4231 1450 3742 
Q 1025 3253 1025 2328 
Q 1025 1406 1450 917 
Q 1875 428 2675 428 
Q 3081 428 3442 575 
Q 3803 722 4122 1019 
L 4122 359 
Q 3791 134 3420 21 
Q 3050 -91 2638 -91 
Q 1578 -91 968 557 
Q 359 1206 359 2328 
Q 359 3453 968 4101 
Q 1578 4750 2638 4750 
Q 3056 4750 3426 4639 
Q 3797 4528 4122 4306 
z
" transform="scale(0.015625)"/>
        <path id="DejaVuSans-49" d="M 628 4666 
L 1259 4666 
L 1259 0 
L 628 0 
L 628 4666 
z
" transform="scale(0.015625)"/>
        <path id="DejaVuSans-4c" d="M 628 4666 
L 1259 4666 
L 1259 531 
L 3531 531 
L 3531 0 
L 628 0 
L 628 4666 
z
" transform="scale(0.015625)"/>
       </defs>
       <use xlink:href="#DejaVuSans-4e"/>
       <use xlink:href="#DejaVuSans-6f" transform="translate(74.804688 0)"/>
       <use xlink:href="#DejaVuSans-72" transform="translate(135.986328 0)"/>
       <use xlink:href="#DejaVuSans-6d" transform="translate(175.349609 0)"/>
       <use xlink:href="#DejaVuSans-61" transform="translate(272.761719 0)"/>
       <use xlink:href="#DejaVuSans-6c" transform="translate(334.041016 0)"/>
       <use xlink:href="#DejaVuSans-2d" transform="translate(361.824219 0)"/>
       <use xlink:href="#DejaVuSans-43" transform="translate(397.908203 0)"/>
       <use xlink:href="#DejaVuSans-49" transform="translate(467.732422 0)"/>
       <use xlink:href="#DejaVuSans-4c" transform="translate(497.224609 0)"/>
      </g>
     </g>
    </g>
    <g id="xtick_2">
     <g id="line2d_2">
      <g>
       <use xlink:href="#me67aac023d" x="232.127331" y="384.48" style="stroke: #000000; stroke-width: 0.8"/>
      </g>
     </g>
     <g id="text_2">
      <!-- EVM -->
      <g transform="translate(221.233581 399.078438) scale(0.1 -0.1)">
       <defs>
        <path id="DejaVuSans-45" d="M 628 4666 
L 3578 4666 
L 3578 4134 
L 1259 4134 
L 1259 2753 
L 3481 2753 
L 3481 2222 
L 1259 2222 
L 1259 531 
L 3634 531 
L 3634 0 
L 628 0 
L 628 4666 
z
" transform="scale(0.015625)"/>
        <path id="DejaVuSans-56" d="M 1831 0 
L 50 4666 
L 709 4666 
L 2188 738 
L 3669 4666 
L 4325 4666 
L 2547 0 
L 1831 0 
z
" transform="scale(0.015625)"/>
        <path id="DejaVuSans-4d" d="M 628 4666 
L 1569 4666 
L 2759 1491 
L 3956 4666 
L 4897 4666 
L 4897 0 
L 4281 0 
L 4281 4097 
L 3078 897 
L 2444 897 
L 1241 4097 
L 1241 0 
L 628 0 
L 628 4666 
z
" transform="scale(0.015625)"/>
       </defs>
       <use xlink:href="#DejaVuSans-45"/>
       <use xlink:href="#DejaVuSans-56" transform="translate(63.183594 0)"/>
       <use xlink:href="#DejaVuSans-4d" transform="translate(131.591797 0)"/>
      </g>
     </g>
    </g>
    <g id="xtick_3">
     <g id="line2d_3">
      <g>
       <use xlink:href="#me67aac023d" x="303.545455" y="384.48" style="stroke: #000000; stroke-width: 0.8"/>
      </g>
     </g>
     <g id="text_3">
      <!-- EVM+OOD -->
      <g transform="translate(276.739986 399.078438) scale(0.1 -0.1)">
       <defs>
        <path id="DejaVuSans-2b" d="M 2944 4013 
L 2944 2272 
L 4684 2272 
L 4684 1741 
L 2944 1741 
L 2944 0 
L 2419 0 
L 2419 1741 
L 678 1741 
L 678 2272 
L 2419 2272 
L 2419 4013 
L 2944 4013 
z
" transform="scale(0.015625)"/>
        <path id="DejaVuSans-4f" d="M 2522 4238 
Q 1834 4238 1429 3725 
Q 1025 3213 1025 2328 
Q 1025 1447 1429 934 
Q 1834 422 2522 422 
Q 3209 422 3611 934 
Q 4013 1447 4013 2328 
Q 4013 3213 3611 3725 
Q 3209 4238 2522 4238 
z
M 2522 4750 
Q 3503 4750 4090 4092 
Q 4678 3434 4678 2328 
Q 4678 1225 4090 567 
Q 3503 -91 2522 -91 
Q 1538 -91 948 565 
Q 359 1222 359 2328 
Q 359 3434 948 4092 
Q 1538 4750 2522 4750 
z
" transform="scale(0.015625)"/>
        <path id="DejaVuSans-44" d="M 1259 4147 
L 1259 519 
L 2022 519 
Q 2988 519 3436 956 
Q 3884 1394 3884 2338 
Q 3884 3275 3436 3711 
Q 2988 4147 2022 4147 
L 1259 4147 
z
M 628 4666 
L 1925 4666 
Q 3281 4666 3915 4102 
Q 4550 3538 4550 2338 
Q 4550 1131 3912 565 
Q 3275 0 1925 0 
L 628 0 
L 628 4666 
z
" transform="scale(0.015625)"/>
       </defs>
       <use xlink:href="#DejaVuSans-45"/>
       <use xlink:href="#DejaVuSans-56" transform="translate(63.183594 0)"/>
       <use xlink:href="#DejaVuSans-4d" transform="translate(131.591797 0)"/>
       <use xlink:href="#DejaVuSans-2b" transform="translate(217.871094 0)"/>
       <use xlink:href="#DejaVuSans-4f" transform="translate(301.660156 0)"/>
       <use xlink:href="#DejaVuSans-4f" transform="translate(380.371094 0)"/>
       <use xlink:href="#DejaVuSans-44" transform="translate(459.082031 0)"/>
      </g>
     </g>
    </g>
    <g id="xtick_4">
     <g id="line2d_4">
      <g>
       <use xlink:href="#me67aac023d" x="374.963578" y="384.48" style="stroke: #000000; stroke-width: 0.8"/>
      </g>
     </g>
     <g id="text_4">
      <!-- iEVM -->
      <g transform="translate(362.680765 399.078438) scale(0.1 -0.1)">
       <defs>
        <path id="DejaVuSans-69" d="M 603 3500 
L 1178 3500 
L 1178 0 
L 603 0 
L 603 3500 
z
M 603 4863 
L 1178 4863 
L 1178 4134 
L 603 4134 
L 603 4863 
z
" transform="scale(0.015625)"/>
       </defs>
       <use xlink:href="#DejaVuSans-69"/>
       <use xlink:href="#DejaVuSans-45" transform="translate(27.783203 0)"/>
       <use xlink:href="#DejaVuSans-56" transform="translate(90.966797 0)"/>
       <use xlink:href="#DejaVuSans-4d" transform="translate(159.375 0)"/>
      </g>
     </g>
    </g>
    <g id="xtick_5">
     <g id="line2d_5">
      <g>
       <use xlink:href="#me67aac023d" x="446.381701" y="384.48" style="stroke: #000000; stroke-width: 0.8"/>
      </g>
     </g>
     <g id="text_5">
      <!-- RegEVM -->
      <g transform="translate(425.987951 399.078438) scale(0.1 -0.1)">
       <defs>
        <path id="DejaVuSans-52" d="M 2841 2188 
Q 3044 2119 3236 1894 
Q 3428 1669 3622 1275 
L 4263 0 
L 3584 0 
L 2988 1197 
Q 2756 1666 2539 1819 
Q 2322 1972 1947 1972 
L 1259 1972 
L 1259 0 
L 628 0 
L 628 4666 
L 2053 4666 
Q 2853 4666 3247 4331 
Q 3641 3997 3641 3322 
Q 3641 2881 3436 2590 
Q 3231 2300 2841 2188 
z
M 1259 4147 
L 1259 2491 
L 2053 2491 
Q 2509 2491 2742 2702 
Q 2975 2913 2975 3322 
Q 2975 3731 2742 3939 
Q 2509 4147 2053 4147 
L 1259 4147 
z
" transform="scale(0.015625)"/>
        <path id="DejaVuSans-65" d="M 3597 1894 
L 3597 1613 
L 953 1613 
Q 991 1019 1311 708 
Q 1631 397 2203 397 
Q 2534 397 2845 478 
Q 3156 559 3463 722 
L 3463 178 
Q 3153 47 2828 -22 
Q 2503 -91 2169 -91 
Q 1331 -91 842 396 
Q 353 884 353 1716 
Q 353 2575 817 3079 
Q 1281 3584 2069 3584 
Q 2775 3584 3186 3129 
Q 3597 2675 3597 1894 
z
M 3022 2063 
Q 3016 2534 2758 2815 
Q 2500 3097 2075 3097 
Q 1594 3097 1305 2825 
Q 1016 2553 972 2059 
L 3022 2063 
z
" transform="scale(0.015625)"/>
        <path id="DejaVuSans-67" d="M 2906 1791 
Q 2906 2416 2648 2759 
Q 2391 3103 1925 3103 
Q 1463 3103 1205 2759 
Q 947 2416 947 1791 
Q 947 1169 1205 825 
Q 1463 481 1925 481 
Q 2391 481 2648 825 
Q 2906 1169 2906 1791 
z
M 3481 434 
Q 3481 -459 3084 -895 
Q 2688 -1331 1869 -1331 
Q 1566 -1331 1297 -1286 
Q 1028 -1241 775 -1147 
L 775 -588 
Q 1028 -725 1275 -790 
Q 1522 -856 1778 -856 
Q 2344 -856 2625 -561 
Q 2906 -266 2906 331 
L 2906 616 
Q 2728 306 2450 153 
Q 2172 0 1784 0 
Q 1141 0 747 490 
Q 353 981 353 1791 
Q 353 2603 747 3093 
Q 1141 3584 1784 3584 
Q 2172 3584 2450 3431 
Q 2728 3278 2906 2969 
L 2906 3500 
L 3481 3500 
L 3481 434 
z
" transform="scale(0.015625)"/>
       </defs>
       <use xlink:href="#DejaVuSans-52"/>
       <use xlink:href="#DejaVuSans-65" transform="translate(64.982422 0)"/>
       <use xlink:href="#DejaVuSans-67" transform="translate(126.505859 0)"/>
       <use xlink:href="#DejaVuSans-45" transform="translate(189.982422 0)"/>
       <use xlink:href="#DejaVuSans-56" transform="translate(253.166016 0)"/>
       <use xlink:href="#DejaVuSans-4d" transform="translate(321.574219 0)"/>
      </g>
     </g>
    </g>
   </g>
   <g id="matplotlib.axis_2">
    <g id="ytick_1">
     <g id="line2d_6">
      <defs>
       <path id="ma7a7fd266b" d="M 0 0 
L -3.5 0 
" style="stroke: #000000; stroke-width: 0.8"/>
      </defs>
      <g>
       <use xlink:href="#ma7a7fd266b" x="126" y="384.48" style="stroke: #000000; stroke-width: 0.8"/>
      </g>
     </g>
     <g id="text_6">
      <!-- 0 -->
      <g transform="translate(112.6375 388.279219) scale(0.1 -0.1)">
       <defs>
        <path id="DejaVuSans-30" d="M 2034 4250 
Q 1547 4250 1301 3770 
Q 1056 3291 1056 2328 
Q 1056 1369 1301 889 
Q 1547 409 2034 409 
Q 2525 409 2770 889 
Q 3016 1369 3016 2328 
Q 3016 3291 2770 3770 
Q 2525 4250 2034 4250 
z
M 2034 4750 
Q 2819 4750 3233 4129 
Q 3647 3509 3647 2328 
Q 3647 1150 3233 529 
Q 2819 -91 2034 -91 
Q 1250 -91 836 529 
Q 422 1150 422 2328 
Q 422 3509 836 4129 
Q 1250 4750 2034 4750 
z
" transform="scale(0.015625)"/>
       </defs>
       <use xlink:href="#DejaVuSans-30"/>
      </g>
     </g>
    </g>
    <g id="ytick_2">
     <g id="line2d_7">
      <g>
       <use xlink:href="#ma7a7fd266b" x="126" y="317.952" style="stroke: #000000; stroke-width: 0.8"/>
      </g>
     </g>
     <g id="text_7">
      <!-- 20 -->
      <g transform="translate(106.275 321.751219) scale(0.1 -0.1)">
       <defs>
        <path id="DejaVuSans-32" d="M 1228 531 
L 3431 531 
L 3431 0 
L 469 0 
L 469 531 
Q 828 903 1448 1529 
Q 2069 2156 2228 2338 
Q 2531 2678 2651 2914 
Q 2772 3150 2772 3378 
Q 2772 3750 2511 3984 
Q 2250 4219 1831 4219 
Q 1534 4219 1204 4116 
Q 875 4013 500 3803 
L 500 4441 
Q 881 4594 1212 4672 
Q 1544 4750 1819 4750 
Q 2544 4750 2975 4387 
Q 3406 4025 3406 3419 
Q 3406 3131 3298 2873 
Q 3191 2616 2906 2266 
Q 2828 2175 2409 1742 
Q 1991 1309 1228 531 
z
" transform="scale(0.015625)"/>
       </defs>
       <use xlink:href="#DejaVuSans-32"/>
       <use xlink:href="#DejaVuSans-30" transform="translate(63.623047 0)"/>
      </g>
     </g>
    </g>
    <g id="ytick_3">
     <g id="line2d_8">
      <g>
       <use xlink:href="#ma7a7fd266b" x="126" y="251.424" style="stroke: #000000; stroke-width: 0.8"/>
      </g>
     </g>
     <g id="text_8">
      <!-- 40 -->
      <g transform="translate(106.275 255.223219) scale(0.1 -0.1)">
       <defs>
        <path id="DejaVuSans-34" d="M 2419 4116 
L 825 1625 
L 2419 1625 
L 2419 4116 
z
M 2253 4666 
L 3047 4666 
L 3047 1625 
L 3713 1625 
L 3713 1100 
L 3047 1100 
L 3047 0 
L 2419 0 
L 2419 1100 
L 313 1100 
L 313 1709 
L 2253 4666 
z
" transform="scale(0.015625)"/>
       </defs>
       <use xlink:href="#DejaVuSans-34"/>
       <use xlink:href="#DejaVuSans-30" transform="translate(63.623047 0)"/>
      </g>
     </g>
    </g>
    <g id="ytick_4">
     <g id="line2d_9">
      <g>
       <use xlink:href="#ma7a7fd266b" x="126" y="184.896" style="stroke: #000000; stroke-width: 0.8"/>
      </g>
     </g>
     <g id="text_9">
      <!-- 60 -->
      <g transform="translate(106.275 188.695219) scale(0.1 -0.1)">
       <defs>
        <path id="DejaVuSans-36" d="M 2113 2584 
Q 1688 2584 1439 2293 
Q 1191 2003 1191 1497 
Q 1191 994 1439 701 
Q 1688 409 2113 409 
Q 2538 409 2786 701 
Q 3034 994 3034 1497 
Q 3034 2003 2786 2293 
Q 2538 2584 2113 2584 
z
M 3366 4563 
L 3366 3988 
Q 3128 4100 2886 4159 
Q 2644 4219 2406 4219 
Q 1781 4219 1451 3797 
Q 1122 3375 1075 2522 
Q 1259 2794 1537 2939 
Q 1816 3084 2150 3084 
Q 2853 3084 3261 2657 
Q 3669 2231 3669 1497 
Q 3669 778 3244 343 
Q 2819 -91 2113 -91 
Q 1303 -91 875 529 
Q 447 1150 447 2328 
Q 447 3434 972 4092 
Q 1497 4750 2381 4750 
Q 2619 4750 2861 4703 
Q 3103 4656 3366 4563 
z
" transform="scale(0.015625)"/>
       </defs>
       <use xlink:href="#DejaVuSans-36"/>
       <use xlink:href="#DejaVuSans-30" transform="translate(63.623047 0)"/>
      </g>
     </g>
    </g>
    <g id="ytick_5">
     <g id="line2d_10">
      <g>
       <use xlink:href="#ma7a7fd266b" x="126" y="118.368" style="stroke: #000000; stroke-width: 0.8"/>
      </g>
     </g>
     <g id="text_10">
      <!-- 80 -->
      <g transform="translate(106.275 122.167219) scale(0.1 -0.1)">
       <defs>
        <path id="DejaVuSans-38" d="M 2034 2216 
Q 1584 2216 1326 1975 
Q 1069 1734 1069 1313 
Q 1069 891 1326 650 
Q 1584 409 2034 409 
Q 2484 409 2743 651 
Q 3003 894 3003 1313 
Q 3003 1734 2745 1975 
Q 2488 2216 2034 2216 
z
M 1403 2484 
Q 997 2584 770 2862 
Q 544 3141 544 3541 
Q 544 4100 942 4425 
Q 1341 4750 2034 4750 
Q 2731 4750 3128 4425 
Q 3525 4100 3525 3541 
Q 3525 3141 3298 2862 
Q 3072 2584 2669 2484 
Q 3125 2378 3379 2068 
Q 3634 1759 3634 1313 
Q 3634 634 3220 271 
Q 2806 -91 2034 -91 
Q 1263 -91 848 271 
Q 434 634 434 1313 
Q 434 1759 690 2068 
Q 947 2378 1403 2484 
z
M 1172 3481 
Q 1172 3119 1398 2916 
Q 1625 2713 2034 2713 
Q 2441 2713 2670 2916 
Q 2900 3119 2900 3481 
Q 2900 3844 2670 4047 
Q 2441 4250 2034 4250 
Q 1625 4250 1398 4047 
Q 1172 3844 1172 3481 
z
" transform="scale(0.015625)"/>
       </defs>
       <use xlink:href="#DejaVuSans-38"/>
       <use xlink:href="#DejaVuSans-30" transform="translate(63.623047 0)"/>
      </g>
     </g>
    </g>
    <g id="ytick_6">
     <g id="line2d_11">
      <g>
       <use xlink:href="#ma7a7fd266b" x="126" y="51.84" style="stroke: #000000; stroke-width: 0.8"/>
      </g>
     </g>
     <g id="text_11">
      <!-- 100 -->
      <g transform="translate(99.9125 55.639219) scale(0.1 -0.1)">
       <defs>
        <path id="DejaVuSans-31" d="M 794 531 
L 1825 531 
L 1825 4091 
L 703 3866 
L 703 4441 
L 1819 4666 
L 2450 4666 
L 2450 531 
L 3481 531 
L 3481 0 
L 794 0 
L 794 531 
z
" transform="scale(0.015625)"/>
       </defs>
       <use xlink:href="#DejaVuSans-31"/>
       <use xlink:href="#DejaVuSans-30" transform="translate(63.623047 0)"/>
       <use xlink:href="#DejaVuSans-30" transform="translate(127.246094 0)"/>
      </g>
     </g>
    </g>
    <g id="text_12">
     <!-- Accuracy (%) -->
     <g transform="translate(93.832812 251.229531) rotate(-90) scale(0.1 -0.1)">
      <defs>
       <path id="DejaVuSans-41" d="M 2188 4044 
L 1331 1722 
L 3047 1722 
L 2188 4044 
z
M 1831 4666 
L 2547 4666 
L 4325 0 
L 3669 0 
L 3244 1197 
L 1141 1197 
L 716 0 
L 50 0 
L 1831 4666 
z
" transform="scale(0.015625)"/>
       <path id="DejaVuSans-63" d="M 3122 3366 
L 3122 2828 
Q 2878 2963 2633 3030 
Q 2388 3097 2138 3097 
Q 1578 3097 1268 2742 
Q 959 2388 959 1747 
Q 959 1106 1268 751 
Q 1578 397 2138 397 
Q 2388 397 2633 464 
Q 2878 531 3122 666 
L 3122 134 
Q 2881 22 2623 -34 
Q 2366 -91 2075 -91 
Q 1284 -91 818 406 
Q 353 903 353 1747 
Q 353 2603 823 3093 
Q 1294 3584 2113 3584 
Q 2378 3584 2631 3529 
Q 2884 3475 3122 3366 
z
" transform="scale(0.015625)"/>
       <path id="DejaVuSans-75" d="M 544 1381 
L 544 3500 
L 1119 3500 
L 1119 1403 
Q 1119 906 1312 657 
Q 1506 409 1894 409 
Q 2359 409 2629 706 
Q 2900 1003 2900 1516 
L 2900 3500 
L 3475 3500 
L 3475 0 
L 2900 0 
L 2900 538 
Q 2691 219 2414 64 
Q 2138 -91 1772 -91 
Q 1169 -91 856 284 
Q 544 659 544 1381 
z
M 1991 3584 
L 1991 3584 
z
" transform="scale(0.015625)"/>
       <path id="DejaVuSans-79" d="M 2059 -325 
Q 1816 -950 1584 -1140 
Q 1353 -1331 966 -1331 
L 506 -1331 
L 506 -850 
L 844 -850 
Q 1081 -850 1212 -737 
Q 1344 -625 1503 -206 
L 1606 56 
L 191 3500 
L 800 3500 
L 1894 763 
L 2988 3500 
L 3597 3500 
L 2059 -325 
z
" transform="scale(0.015625)"/>
       <path id="DejaVuSans-20" transform="scale(0.015625)"/>
       <path id="DejaVuSans-28" d="M 1984 4856 
Q 1566 4138 1362 3434 
Q 1159 2731 1159 2009 
Q 1159 1288 1364 580 
Q 1569 -128 1984 -844 
L 1484 -844 
Q 1016 -109 783 600 
Q 550 1309 550 2009 
Q 550 2706 781 3412 
Q 1013 4119 1484 4856 
L 1984 4856 
z
" transform="scale(0.015625)"/>
       <path id="DejaVuSans-25" d="M 4653 2053 
Q 4381 2053 4226 1822 
Q 4072 1591 4072 1178 
Q 4072 772 4226 539 
Q 4381 306 4653 306 
Q 4919 306 5073 539 
Q 5228 772 5228 1178 
Q 5228 1588 5073 1820 
Q 4919 2053 4653 2053 
z
M 4653 2450 
Q 5147 2450 5437 2106 
Q 5728 1763 5728 1178 
Q 5728 594 5436 251 
Q 5144 -91 4653 -91 
Q 4153 -91 3862 251 
Q 3572 594 3572 1178 
Q 3572 1766 3864 2108 
Q 4156 2450 4653 2450 
z
M 1428 4353 
Q 1159 4353 1004 4120 
Q 850 3888 850 3481 
Q 850 3069 1003 2837 
Q 1156 2606 1428 2606 
Q 1700 2606 1854 2837 
Q 2009 3069 2009 3481 
Q 2009 3884 1853 4118 
Q 1697 4353 1428 4353 
z
M 4250 4750 
L 4750 4750 
L 1831 -91 
L 1331 -91 
L 4250 4750 
z
M 1428 4750 
Q 1922 4750 2215 4408 
Q 2509 4066 2509 3481 
Q 2509 2891 2217 2550 
Q 1925 2209 1428 2209 
Q 931 2209 642 2551 
Q 353 2894 353 3481 
Q 353 4063 643 4406 
Q 934 4750 1428 4750 
z
" transform="scale(0.015625)"/>
       <path id="DejaVuSans-29" d="M 513 4856 
L 1013 4856 
Q 1481 4119 1714 3412 
Q 1947 2706 1947 2009 
Q 1947 1309 1714 600 
Q 1481 -109 1013 -844 
L 513 -844 
Q 928 -128 1133 580 
Q 1338 1288 1338 2009 
Q 1338 2731 1133 3434 
Q 928 4138 513 4856 
z
" transform="scale(0.015625)"/>
      </defs>
      <use xlink:href="#DejaVuSans-41"/>
      <use xlink:href="#DejaVuSans-63" transform="translate(66.658203 0)"/>
      <use xlink:href="#DejaVuSans-63" transform="translate(121.638672 0)"/>
      <use xlink:href="#DejaVuSans-75" transform="translate(176.619141 0)"/>
      <use xlink:href="#DejaVuSans-72" transform="translate(239.998047 0)"/>
      <use xlink:href="#DejaVuSans-61" transform="translate(281.111328 0)"/>
      <use xlink:href="#DejaVuSans-63" transform="translate(342.390625 0)"/>
      <use xlink:href="#DejaVuSans-79" transform="translate(397.371094 0)"/>
      <use xlink:href="#DejaVuSans-20" transform="translate(456.550781 0)"/>
      <use xlink:href="#DejaVuSans-28" transform="translate(488.337891 0)"/>
      <use xlink:href="#DejaVuSans-25" transform="translate(527.351562 0)"/>
      <use xlink:href="#DejaVuSans-29" transform="translate(622.371094 0)"/>
     </g>
    </g>
   </g>
   <g id="line2d_12">
    <path d="M 126 74.426256 
L 481.090909 74.426256 
" clip-path="url(#p6247e40c2c)" style="fill: none; stroke-dasharray: 5.55,2.4; stroke-dashoffset: 0; stroke: #000000; stroke-width: 1.5"/>
   </g>
   <g id="patch_13">
    <path d="M 126 384.48 
L 126 51.84 
" style="fill: none; stroke: #000000; stroke-width: 0.8; stroke-linejoin: miter; stroke-linecap: square"/>
   </g>
   <g id="patch_14">
    <path d="M 481.090909 384.48 
L 481.090909 51.84 
" style="fill: none; stroke: #000000; stroke-width: 0.8; stroke-linejoin: miter; stroke-linecap: square"/>
   </g>
   <g id="patch_15">
    <path d="M 126 384.48 
L 481.090909 384.48 
" style="fill: none; stroke: #000000; stroke-width: 0.8; stroke-linejoin: miter; stroke-linecap: square"/>
   </g>
   <g id="patch_16">
    <path d="M 126 51.84 
L 481.090909 51.84 
" style="fill: none; stroke: #000000; stroke-width: 0.8; stroke-linejoin: miter; stroke-linecap: square"/>
   </g>
   <g id="text_13">
    <!-- EAML-CIL using SILS (2nd Inc) Validation and Test Accuracy -->
    <g transform="translate(126.466705 45.84) scale(0.12 -0.12)">
     <defs>
      <path id="DejaVuSans-73" d="M 2834 3397 
L 2834 2853 
Q 2591 2978 2328 3040 
Q 2066 3103 1784 3103 
Q 1356 3103 1142 2972 
Q 928 2841 928 2578 
Q 928 2378 1081 2264 
Q 1234 2150 1697 2047 
L 1894 2003 
Q 2506 1872 2764 1633 
Q 3022 1394 3022 966 
Q 3022 478 2636 193 
Q 2250 -91 1575 -91 
Q 1294 -91 989 -36 
Q 684 19 347 128 
L 347 722 
Q 666 556 975 473 
Q 1284 391 1588 391 
Q 1994 391 2212 530 
Q 2431 669 2431 922 
Q 2431 1156 2273 1281 
Q 2116 1406 1581 1522 
L 1381 1569 
Q 847 1681 609 1914 
Q 372 2147 372 2553 
Q 372 3047 722 3315 
Q 1072 3584 1716 3584 
Q 2034 3584 2315 3537 
Q 2597 3491 2834 3397 
z
" transform="scale(0.015625)"/>
      <path id="DejaVuSans-6e" d="M 3513 2113 
L 3513 0 
L 2938 0 
L 2938 2094 
Q 2938 2591 2744 2837 
Q 2550 3084 2163 3084 
Q 1697 3084 1428 2787 
Q 1159 2491 1159 1978 
L 1159 0 
L 581 0 
L 581 3500 
L 1159 3500 
L 1159 2956 
Q 1366 3272 1645 3428 
Q 1925 3584 2291 3584 
Q 2894 3584 3203 3211 
Q 3513 2838 3513 2113 
z
" transform="scale(0.015625)"/>
      <path id="DejaVuSans-53" d="M 3425 4513 
L 3425 3897 
Q 3066 4069 2747 4153 
Q 2428 4238 2131 4238 
Q 1616 4238 1336 4038 
Q 1056 3838 1056 3469 
Q 1056 3159 1242 3001 
Q 1428 2844 1947 2747 
L 2328 2669 
Q 3034 2534 3370 2195 
Q 3706 1856 3706 1288 
Q 3706 609 3251 259 
Q 2797 -91 1919 -91 
Q 1588 -91 1214 -16 
Q 841 59 441 206 
L 441 856 
Q 825 641 1194 531 
Q 1563 422 1919 422 
Q 2459 422 2753 634 
Q 3047 847 3047 1241 
Q 3047 1584 2836 1778 
Q 2625 1972 2144 2069 
L 1759 2144 
Q 1053 2284 737 2584 
Q 422 2884 422 3419 
Q 422 4038 858 4394 
Q 1294 4750 2059 4750 
Q 2388 4750 2728 4690 
Q 3069 4631 3425 4513 
z
" transform="scale(0.015625)"/>
      <path id="DejaVuSans-64" d="M 2906 2969 
L 2906 4863 
L 3481 4863 
L 3481 0 
L 2906 0 
L 2906 525 
Q 2725 213 2448 61 
Q 2172 -91 1784 -91 
Q 1150 -91 751 415 
Q 353 922 353 1747 
Q 353 2572 751 3078 
Q 1150 3584 1784 3584 
Q 2172 3584 2448 3432 
Q 2725 3281 2906 2969 
z
M 947 1747 
Q 947 1113 1208 752 
Q 1469 391 1925 391 
Q 2381 391 2643 752 
Q 2906 1113 2906 1747 
Q 2906 2381 2643 2742 
Q 2381 3103 1925 3103 
Q 1469 3103 1208 2742 
Q 947 2381 947 1747 
z
" transform="scale(0.015625)"/>
      <path id="DejaVuSans-74" d="M 1172 4494 
L 1172 3500 
L 2356 3500 
L 2356 3053 
L 1172 3053 
L 1172 1153 
Q 1172 725 1289 603 
Q 1406 481 1766 481 
L 2356 481 
L 2356 0 
L 1766 0 
Q 1100 0 847 248 
Q 594 497 594 1153 
L 594 3053 
L 172 3053 
L 172 3500 
L 594 3500 
L 594 4494 
L 1172 4494 
z
" transform="scale(0.015625)"/>
      <path id="DejaVuSans-54" d="M -19 4666 
L 3928 4666 
L 3928 4134 
L 2272 4134 
L 2272 0 
L 1638 0 
L 1638 4134 
L -19 4134 
L -19 4666 
z
" transform="scale(0.015625)"/>
     </defs>
     <use xlink:href="#DejaVuSans-45"/>
     <use xlink:href="#DejaVuSans-41" transform="translate(63.183594 0)"/>
     <use xlink:href="#DejaVuSans-4d" transform="translate(131.591797 0)"/>
     <use xlink:href="#DejaVuSans-4c" transform="translate(217.871094 0)"/>
     <use xlink:href="#DejaVuSans-2d" transform="translate(271.833984 0)"/>
     <use xlink:href="#DejaVuSans-43" transform="translate(307.917969 0)"/>
     <use xlink:href="#DejaVuSans-49" transform="translate(377.742188 0)"/>
     <use xlink:href="#DejaVuSans-4c" transform="translate(407.234375 0)"/>
     <use xlink:href="#DejaVuSans-20" transform="translate(462.947266 0)"/>
     <use xlink:href="#DejaVuSans-75" transform="translate(494.734375 0)"/>
     <use xlink:href="#DejaVuSans-73" transform="translate(558.113281 0)"/>
     <use xlink:href="#DejaVuSans-69" transform="translate(610.212891 0)"/>
     <use xlink:href="#DejaVuSans-6e" transform="translate(637.996094 0)"/>
     <use xlink:href="#DejaVuSans-67" transform="translate(701.375 0)"/>
     <use xlink:href="#DejaVuSans-20" transform="translate(764.851562 0)"/>
     <use xlink:href="#DejaVuSans-53" transform="translate(796.638672 0)"/>
     <use xlink:href="#DejaVuSans-49" transform="translate(860.115234 0)"/>
     <use xlink:href="#DejaVuSans-4c" transform="translate(889.607422 0)"/>
     <use xlink:href="#DejaVuSans-53" transform="translate(945.320312 0)"/>
     <use xlink:href="#DejaVuSans-20" transform="translate(1008.796875 0)"/>
     <use xlink:href="#DejaVuSans-28" transform="translate(1040.583984 0)"/>
     <use xlink:href="#DejaVuSans-32" transform="translate(1079.597656 0)"/>
     <use xlink:href="#DejaVuSans-6e" transform="translate(1143.220703 0)"/>
     <use xlink:href="#DejaVuSans-64" transform="translate(1206.599609 0)"/>
     <use xlink:href="#DejaVuSans-20" transform="translate(1270.076172 0)"/>
     <use xlink:href="#DejaVuSans-49" transform="translate(1301.863281 0)"/>
     <use xlink:href="#DejaVuSans-6e" transform="translate(1331.355469 0)"/>
     <use xlink:href="#DejaVuSans-63" transform="translate(1394.734375 0)"/>
     <use xlink:href="#DejaVuSans-29" transform="translate(1449.714844 0)"/>
     <use xlink:href="#DejaVuSans-20" transform="translate(1488.728516 0)"/>
     <use xlink:href="#DejaVuSans-56" transform="translate(1520.515625 0)"/>
     <use xlink:href="#DejaVuSans-61" transform="translate(1581.173828 0)"/>
     <use xlink:href="#DejaVuSans-6c" transform="translate(1642.453125 0)"/>
     <use xlink:href="#DejaVuSans-69" transform="translate(1670.236328 0)"/>
     <use xlink:href="#DejaVuSans-64" transform="translate(1698.019531 0)"/>
     <use xlink:href="#DejaVuSans-61" transform="translate(1761.496094 0)"/>
     <use xlink:href="#DejaVuSans-74" transform="translate(1822.775391 0)"/>
     <use xlink:href="#DejaVuSans-69" transform="translate(1861.984375 0)"/>
     <use xlink:href="#DejaVuSans-6f" transform="translate(1889.767578 0)"/>
     <use xlink:href="#DejaVuSans-6e" transform="translate(1950.949219 0)"/>
     <use xlink:href="#DejaVuSans-20" transform="translate(2014.328125 0)"/>
     <use xlink:href="#DejaVuSans-61" transform="translate(2046.115234 0)"/>
     <use xlink:href="#DejaVuSans-6e" transform="translate(2107.394531 0)"/>
     <use xlink:href="#DejaVuSans-64" transform="translate(2170.773438 0)"/>
     <use xlink:href="#DejaVuSans-20" transform="translate(2234.25 0)"/>
     <use xlink:href="#DejaVuSans-54" transform="translate(2266.037109 0)"/>
     <use xlink:href="#DejaVuSans-65" transform="translate(2310.121094 0)"/>
     <use xlink:href="#DejaVuSans-73" transform="translate(2371.644531 0)"/>
     <use xlink:href="#DejaVuSans-74" transform="translate(2423.744141 0)"/>
     <use xlink:href="#DejaVuSans-20" transform="translate(2462.953125 0)"/>
     <use xlink:href="#DejaVuSans-41" transform="translate(2494.740234 0)"/>
     <use xlink:href="#DejaVuSans-63" transform="translate(2561.398438 0)"/>
     <use xlink:href="#DejaVuSans-63" transform="translate(2616.378906 0)"/>
     <use xlink:href="#DejaVuSans-75" transform="translate(2671.359375 0)"/>
     <use xlink:href="#DejaVuSans-72" transform="translate(2734.738281 0)"/>
     <use xlink:href="#DejaVuSans-61" transform="translate(2775.851562 0)"/>
     <use xlink:href="#DejaVuSans-63" transform="translate(2837.130859 0)"/>
     <use xlink:href="#DejaVuSans-79" transform="translate(2892.111328 0)"/>
    </g>
   </g>
  </g>
  <g id="axes_2">
   <g id="patch_17">
    <path d="M 552.109091 384.48 
L 907.2 384.48 
L 907.2 51.84 
L 552.109091 51.84 
z
" style="fill: #ffffff"/>
   </g>
   <g id="patch_18">
    <path d="M 568.249587 384.48 
L 586.818299 384.48 
L 586.818299 138.459456 
L 568.249587 138.459456 
z
" clip-path="url(#p7f49554dcc)" style="fill: #a1c9f4; stroke: #000000; stroke-linejoin: miter"/>
   </g>
   <g id="patch_19">
    <path d="M 639.66771 384.48 
L 658.236422 384.48 
L 658.236422 123.52392 
L 639.66771 123.52392 
z
" clip-path="url(#p7f49554dcc)" style="fill: #a1c9f4; stroke: #000000; stroke-linejoin: miter"/>
   </g>
   <g id="patch_20">
    <path d="M 711.085833 384.48 
L 729.654545 384.48 
L 729.654545 107.690256 
L 711.085833 107.690256 
z
" clip-path="url(#p7f49554dcc)" style="fill: #a1c9f4; stroke: #000000; stroke-linejoin: miter"/>
   </g>
   <g id="patch_21">
    <path d="M 782.503957 384.48 
L 801.072669 384.48 
L 801.072669 82.875312 
L 782.503957 82.875312 
z
" clip-path="url(#p7f49554dcc)" style="fill: #a1c9f4; stroke: #000000; stroke-linejoin: miter"/>
   </g>
   <g id="patch_22">
    <path d="M 853.92208 384.48 
L 872.490792 384.48 
L 872.490792 85.237056 
L 853.92208 85.237056 
z
" clip-path="url(#p7f49554dcc)" style="fill: #a1c9f4; stroke: #000000; stroke-linejoin: miter"/>
   </g>
   <g id="patch_23">
    <path d="M 586.818299 384.48 
L 605.387011 384.48 
L 605.387011 130.409568 
L 586.818299 130.409568 
z
" clip-path="url(#p7f49554dcc)" style="fill: #debb9b; stroke: #000000; stroke-linejoin: miter"/>
   </g>
   <g id="patch_24">
    <path d="M 658.236422 384.48 
L 676.805134 384.48 
L 676.805134 122.659056 
L 658.236422 122.659056 
z
" clip-path="url(#p7f49554dcc)" style="fill: #debb9b; stroke: #000000; stroke-linejoin: miter"/>
   </g>
   <g id="patch_25">
    <path d="M 729.654545 384.48 
L 748.223258 384.48 
L 748.223258 107.357616 
L 729.654545 107.357616 
z
" clip-path="url(#p7f49554dcc)" style="fill: #debb9b; stroke: #000000; stroke-linejoin: miter"/>
   </g>
   <g id="patch_26">
    <path d="M 801.072669 384.48 
L 819.641381 384.48 
L 819.641381 80.047872 
L 801.072669 80.047872 
z
" clip-path="url(#p7f49554dcc)" style="fill: #debb9b; stroke: #000000; stroke-linejoin: miter"/>
   </g>
   <g id="patch_27">
    <path d="M 872.490792 384.48 
L 891.059504 384.48 
L 891.059504 84.43872 
L 872.490792 84.43872 
z
" clip-path="url(#p7f49554dcc)" style="fill: #debb9b; stroke: #000000; stroke-linejoin: miter"/>
   </g>
   <g id="matplotlib.axis_3">
    <g id="xtick_6">
     <g id="line2d_13">
      <g>
       <use xlink:href="#me67aac023d" x="586.818299" y="384.48" style="stroke: #000000; stroke-width: 0.8"/>
      </g>
     </g>
     <g id="text_14">
      <!-- Normal-CIL -->
      <g transform="translate(559.170643 399.078438) scale(0.1 -0.1)">
       <use xlink:href="#DejaVuSans-4e"/>
       <use xlink:href="#DejaVuSans-6f" transform="translate(74.804688 0)"/>
       <use xlink:href="#DejaVuSans-72" transform="translate(135.986328 0)"/>
       <use xlink:href="#DejaVuSans-6d" transform="translate(175.349609 0)"/>
       <use xlink:href="#DejaVuSans-61" transform="translate(272.761719 0)"/>
       <use xlink:href="#DejaVuSans-6c" transform="translate(334.041016 0)"/>
       <use xlink:href="#DejaVuSans-2d" transform="translate(361.824219 0)"/>
       <use xlink:href="#DejaVuSans-43" transform="translate(397.908203 0)"/>
       <use xlink:href="#DejaVuSans-49" transform="translate(467.732422 0)"/>
       <use xlink:href="#DejaVuSans-4c" transform="translate(497.224609 0)"/>
      </g>
     </g>
    </g>
    <g id="xtick_7">
     <g id="line2d_14">
      <g>
       <use xlink:href="#me67aac023d" x="658.236422" y="384.48" style="stroke: #000000; stroke-width: 0.8"/>
      </g>
     </g>
     <g id="text_15">
      <!-- EVM -->
      <g transform="translate(647.342672 399.078438) scale(0.1 -0.1)">
       <use xlink:href="#DejaVuSans-45"/>
       <use xlink:href="#DejaVuSans-56" transform="translate(63.183594 0)"/>
       <use xlink:href="#DejaVuSans-4d" transform="translate(131.591797 0)"/>
      </g>
     </g>
    </g>
    <g id="xtick_8">
     <g id="line2d_15">
      <g>
       <use xlink:href="#me67aac023d" x="729.654545" y="384.48" style="stroke: #000000; stroke-width: 0.8"/>
      </g>
     </g>
     <g id="text_16">
      <!-- EVM+OOD -->
      <g transform="translate(702.849077 399.078438) scale(0.1 -0.1)">
       <use xlink:href="#DejaVuSans-45"/>
       <use xlink:href="#DejaVuSans-56" transform="translate(63.183594 0)"/>
       <use xlink:href="#DejaVuSans-4d" transform="translate(131.591797 0)"/>
       <use xlink:href="#DejaVuSans-2b" transform="translate(217.871094 0)"/>
       <use xlink:href="#DejaVuSans-4f" transform="translate(301.660156 0)"/>
       <use xlink:href="#DejaVuSans-4f" transform="translate(380.371094 0)"/>
       <use xlink:href="#DejaVuSans-44" transform="translate(459.082031 0)"/>
      </g>
     </g>
    </g>
    <g id="xtick_9">
     <g id="line2d_16">
      <g>
       <use xlink:href="#me67aac023d" x="801.072669" y="384.48" style="stroke: #000000; stroke-width: 0.8"/>
      </g>
     </g>
     <g id="text_17">
      <!-- iEVM -->
      <g transform="translate(788.789856 399.078438) scale(0.1 -0.1)">
       <use xlink:href="#DejaVuSans-69"/>
       <use xlink:href="#DejaVuSans-45" transform="translate(27.783203 0)"/>
       <use xlink:href="#DejaVuSans-56" transform="translate(90.966797 0)"/>
       <use xlink:href="#DejaVuSans-4d" transform="translate(159.375 0)"/>
      </g>
     </g>
    </g>
    <g id="xtick_10">
     <g id="line2d_17">
      <g>
       <use xlink:href="#me67aac023d" x="872.490792" y="384.48" style="stroke: #000000; stroke-width: 0.8"/>
      </g>
     </g>
     <g id="text_18">
      <!-- RegEVM -->
      <g transform="translate(852.097042 399.078438) scale(0.1 -0.1)">
       <use xlink:href="#DejaVuSans-52"/>
       <use xlink:href="#DejaVuSans-65" transform="translate(64.982422 0)"/>
       <use xlink:href="#DejaVuSans-67" transform="translate(126.505859 0)"/>
       <use xlink:href="#DejaVuSans-45" transform="translate(189.982422 0)"/>
       <use xlink:href="#DejaVuSans-56" transform="translate(253.166016 0)"/>
       <use xlink:href="#DejaVuSans-4d" transform="translate(321.574219 0)"/>
      </g>
     </g>
    </g>
   </g>
   <g id="matplotlib.axis_4">
    <g id="ytick_7">
     <g id="line2d_18">
      <g>
       <use xlink:href="#ma7a7fd266b" x="552.109091" y="384.48" style="stroke: #000000; stroke-width: 0.8"/>
      </g>
     </g>
    </g>
    <g id="ytick_8">
     <g id="line2d_19">
      <g>
       <use xlink:href="#ma7a7fd266b" x="552.109091" y="317.952" style="stroke: #000000; stroke-width: 0.8"/>
      </g>
     </g>
    </g>
    <g id="ytick_9">
     <g id="line2d_20">
      <g>
       <use xlink:href="#ma7a7fd266b" x="552.109091" y="251.424" style="stroke: #000000; stroke-width: 0.8"/>
      </g>
     </g>
    </g>
    <g id="ytick_10">
     <g id="line2d_21">
      <g>
       <use xlink:href="#ma7a7fd266b" x="552.109091" y="184.896" style="stroke: #000000; stroke-width: 0.8"/>
      </g>
     </g>
    </g>
    <g id="ytick_11">
     <g id="line2d_22">
      <g>
       <use xlink:href="#ma7a7fd266b" x="552.109091" y="118.368" style="stroke: #000000; stroke-width: 0.8"/>
      </g>
     </g>
    </g>
    <g id="ytick_12">
     <g id="line2d_23">
      <g>
       <use xlink:href="#ma7a7fd266b" x="552.109091" y="51.84" style="stroke: #000000; stroke-width: 0.8"/>
      </g>
     </g>
    </g>
   </g>
   <g id="line2d_24">
    <path d="M 552.109091 74.426256 
L 907.2 74.426256 
" clip-path="url(#p7f49554dcc)" style="fill: none; stroke-dasharray: 5.55,2.4; stroke-dashoffset: 0; stroke: #000000; stroke-width: 1.5"/>
   </g>
   <g id="patch_28">
    <path d="M 552.109091 384.48 
L 552.109091 51.84 
" style="fill: none; stroke: #000000; stroke-width: 0.8; stroke-linejoin: miter; stroke-linecap: square"/>
   </g>
   <g id="patch_29">
    <path d="M 907.2 384.48 
L 907.2 51.84 
" style="fill: none; stroke: #000000; stroke-width: 0.8; stroke-linejoin: miter; stroke-linecap: square"/>
   </g>
   <g id="patch_30">
    <path d="M 552.109091 384.48 
L 907.2 384.48 
" style="fill: none; stroke: #000000; stroke-width: 0.8; stroke-linejoin: miter; stroke-linecap: square"/>
   </g>
   <g id="patch_31">
    <path d="M 552.109091 51.84 
L 907.2 51.84 
" style="fill: none; stroke: #000000; stroke-width: 0.8; stroke-linejoin: miter; stroke-linecap: square"/>
   </g>
   <g id="text_19">
    <!-- EAML-CIL using KDILS (2nd Inc) Validation and Test Accuracy -->
    <g transform="translate(547.83017 45.84) scale(0.12 -0.12)">
     <defs>
      <path id="DejaVuSans-4b" d="M 628 4666 
L 1259 4666 
L 1259 2694 
L 3353 4666 
L 4166 4666 
L 1850 2491 
L 4331 0 
L 3500 0 
L 1259 2247 
L 1259 0 
L 628 0 
L 628 4666 
z
" transform="scale(0.015625)"/>
     </defs>
     <use xlink:href="#DejaVuSans-45"/>
     <use xlink:href="#DejaVuSans-41" transform="translate(63.183594 0)"/>
     <use xlink:href="#DejaVuSans-4d" transform="translate(131.591797 0)"/>
     <use xlink:href="#DejaVuSans-4c" transform="translate(217.871094 0)"/>
     <use xlink:href="#DejaVuSans-2d" transform="translate(271.833984 0)"/>
     <use xlink:href="#DejaVuSans-43" transform="translate(307.917969 0)"/>
     <use xlink:href="#DejaVuSans-49" transform="translate(377.742188 0)"/>
     <use xlink:href="#DejaVuSans-4c" transform="translate(407.234375 0)"/>
     <use xlink:href="#DejaVuSans-20" transform="translate(462.947266 0)"/>
     <use xlink:href="#DejaVuSans-75" transform="translate(494.734375 0)"/>
     <use xlink:href="#DejaVuSans-73" transform="translate(558.113281 0)"/>
     <use xlink:href="#DejaVuSans-69" transform="translate(610.212891 0)"/>
     <use xlink:href="#DejaVuSans-6e" transform="translate(637.996094 0)"/>
     <use xlink:href="#DejaVuSans-67" transform="translate(701.375 0)"/>
     <use xlink:href="#DejaVuSans-20" transform="translate(764.851562 0)"/>
     <use xlink:href="#DejaVuSans-4b" transform="translate(796.638672 0)"/>
     <use xlink:href="#DejaVuSans-44" transform="translate(862.214844 0)"/>
     <use xlink:href="#DejaVuSans-49" transform="translate(939.216797 0)"/>
     <use xlink:href="#DejaVuSans-4c" transform="translate(968.708984 0)"/>
     <use xlink:href="#DejaVuSans-53" transform="translate(1024.421875 0)"/>
     <use xlink:href="#DejaVuSans-20" transform="translate(1087.898438 0)"/>
     <use xlink:href="#DejaVuSans-28" transform="translate(1119.685547 0)"/>
     <use xlink:href="#DejaVuSans-32" transform="translate(1158.699219 0)"/>
     <use xlink:href="#DejaVuSans-6e" transform="translate(1222.322266 0)"/>
     <use xlink:href="#DejaVuSans-64" transform="translate(1285.701172 0)"/>
     <use xlink:href="#DejaVuSans-20" transform="translate(1349.177734 0)"/>
     <use xlink:href="#DejaVuSans-49" transform="translate(1380.964844 0)"/>
     <use xlink:href="#DejaVuSans-6e" transform="translate(1410.457031 0)"/>
     <use xlink:href="#DejaVuSans-63" transform="translate(1473.835938 0)"/>
     <use xlink:href="#DejaVuSans-29" transform="translate(1528.816406 0)"/>
     <use xlink:href="#DejaVuSans-20" transform="translate(1567.830078 0)"/>
     <use xlink:href="#DejaVuSans-56" transform="translate(1599.617188 0)"/>
     <use xlink:href="#DejaVuSans-61" transform="translate(1660.275391 0)"/>
     <use xlink:href="#DejaVuSans-6c" transform="translate(1721.554688 0)"/>
     <use xlink:href="#DejaVuSans-69" transform="translate(1749.337891 0)"/>
     <use xlink:href="#DejaVuSans-64" transform="translate(1777.121094 0)"/>
     <use xlink:href="#DejaVuSans-61" transform="translate(1840.597656 0)"/>
     <use xlink:href="#DejaVuSans-74" transform="translate(1901.876953 0)"/>
     <use xlink:href="#DejaVuSans-69" transform="translate(1941.085938 0)"/>
     <use xlink:href="#DejaVuSans-6f" transform="translate(1968.869141 0)"/>
     <use xlink:href="#DejaVuSans-6e" transform="translate(2030.050781 0)"/>
     <use xlink:href="#DejaVuSans-20" transform="translate(2093.429688 0)"/>
     <use xlink:href="#DejaVuSans-61" transform="translate(2125.216797 0)"/>
     <use xlink:href="#DejaVuSans-6e" transform="translate(2186.496094 0)"/>
     <use xlink:href="#DejaVuSans-64" transform="translate(2249.875 0)"/>
     <use xlink:href="#DejaVuSans-20" transform="translate(2313.351562 0)"/>
     <use xlink:href="#DejaVuSans-54" transform="translate(2345.138672 0)"/>
     <use xlink:href="#DejaVuSans-65" transform="translate(2389.222656 0)"/>
     <use xlink:href="#DejaVuSans-73" transform="translate(2450.746094 0)"/>
     <use xlink:href="#DejaVuSans-74" transform="translate(2502.845703 0)"/>
     <use xlink:href="#DejaVuSans-20" transform="translate(2542.054688 0)"/>
     <use xlink:href="#DejaVuSans-41" transform="translate(2573.841797 0)"/>
     <use xlink:href="#DejaVuSans-63" transform="translate(2640.5 0)"/>
     <use xlink:href="#DejaVuSans-63" transform="translate(2695.480469 0)"/>
     <use xlink:href="#DejaVuSans-75" transform="translate(2750.460938 0)"/>
     <use xlink:href="#DejaVuSans-72" transform="translate(2813.839844 0)"/>
     <use xlink:href="#DejaVuSans-61" transform="translate(2854.953125 0)"/>
     <use xlink:href="#DejaVuSans-63" transform="translate(2916.232422 0)"/>
     <use xlink:href="#DejaVuSans-79" transform="translate(2971.212891 0)"/>
    </g>
   </g>
   <g id="legend_1">
    <g id="patch_32">
     <path d="M 914.2 103.874375 
L 991.392187 103.874375 
Q 993.392187 103.874375 993.392187 101.874375 
L 993.392187 58.84 
Q 993.392187 56.84 991.392187 56.84 
L 914.2 56.84 
Q 912.2 56.84 912.2 58.84 
L 912.2 101.874375 
Q 912.2 103.874375 914.2 103.874375 
z
" style="fill: #ffffff; opacity: 0.8; stroke: #cccccc; stroke-linejoin: miter"/>
    </g>
    <g id="line2d_25">
     <path d="M 916.2 64.938437 
L 926.2 64.938437 
L 936.2 64.938437 
" style="fill: none; stroke-dasharray: 5.55,2.4; stroke-dashoffset: 0; stroke: #000000; stroke-width: 1.5"/>
    </g>
    <g id="text_20">
     <!-- Base Acc -->
     <g transform="translate(944.2 68.438437) scale(0.1 -0.1)">
      <defs>
       <path id="DejaVuSans-42" d="M 1259 2228 
L 1259 519 
L 2272 519 
Q 2781 519 3026 730 
Q 3272 941 3272 1375 
Q 3272 1813 3026 2020 
Q 2781 2228 2272 2228 
L 1259 2228 
z
M 1259 4147 
L 1259 2741 
L 2194 2741 
Q 2656 2741 2882 2914 
Q 3109 3088 3109 3444 
Q 3109 3797 2882 3972 
Q 2656 4147 2194 4147 
L 1259 4147 
z
M 628 4666 
L 2241 4666 
Q 2963 4666 3353 4366 
Q 3744 4066 3744 3513 
Q 3744 3084 3544 2831 
Q 3344 2578 2956 2516 
Q 3422 2416 3680 2098 
Q 3938 1781 3938 1306 
Q 3938 681 3513 340 
Q 3088 0 2303 0 
L 628 0 
L 628 4666 
z
" transform="scale(0.015625)"/>
      </defs>
      <use xlink:href="#DejaVuSans-42"/>
      <use xlink:href="#DejaVuSans-61" transform="translate(68.603516 0)"/>
      <use xlink:href="#DejaVuSans-73" transform="translate(129.882812 0)"/>
      <use xlink:href="#DejaVuSans-65" transform="translate(181.982422 0)"/>
      <use xlink:href="#DejaVuSans-20" transform="translate(243.505859 0)"/>
      <use xlink:href="#DejaVuSans-41" transform="translate(275.292969 0)"/>
      <use xlink:href="#DejaVuSans-63" transform="translate(341.951172 0)"/>
      <use xlink:href="#DejaVuSans-63" transform="translate(396.931641 0)"/>
     </g>
    </g>
    <g id="patch_33">
     <path d="M 916.2 83.116562 
L 936.2 83.116562 
L 936.2 76.116562 
L 916.2 76.116562 
z
" style="fill: #a1c9f4; stroke: #000000; stroke-linejoin: miter"/>
    </g>
    <g id="text_21">
     <!-- Val Acc -->
     <g transform="translate(944.2 83.116562) scale(0.1 -0.1)">
      <use xlink:href="#DejaVuSans-56"/>
      <use xlink:href="#DejaVuSans-61" transform="translate(60.658203 0)"/>
      <use xlink:href="#DejaVuSans-6c" transform="translate(121.9375 0)"/>
      <use xlink:href="#DejaVuSans-20" transform="translate(149.720703 0)"/>
      <use xlink:href="#DejaVuSans-41" transform="translate(181.507812 0)"/>
      <use xlink:href="#DejaVuSans-63" transform="translate(248.166016 0)"/>
      <use xlink:href="#DejaVuSans-63" transform="translate(303.146484 0)"/>
     </g>
    </g>
    <g id="patch_34">
     <path d="M 916.2 97.794687 
L 936.2 97.794687 
L 936.2 90.794687 
L 916.2 90.794687 
z
" style="fill: #debb9b; stroke: #000000; stroke-linejoin: miter"/>
    </g>
    <g id="text_22">
     <!-- Test Acc -->
     <g transform="translate(944.2 97.794687) scale(0.1 -0.1)">
      <use xlink:href="#DejaVuSans-54"/>
      <use xlink:href="#DejaVuSans-65" transform="translate(44.083984 0)"/>
      <use xlink:href="#DejaVuSans-73" transform="translate(105.607422 0)"/>
      <use xlink:href="#DejaVuSans-74" transform="translate(157.707031 0)"/>
      <use xlink:href="#DejaVuSans-20" transform="translate(196.916016 0)"/>
      <use xlink:href="#DejaVuSans-41" transform="translate(228.703125 0)"/>
      <use xlink:href="#DejaVuSans-63" transform="translate(295.361328 0)"/>
      <use xlink:href="#DejaVuSans-63" transform="translate(350.341797 0)"/>
     </g>
    </g>
   </g>
  </g>
 </g>
 <defs>
  <clipPath id="p6247e40c2c">
   <rect x="126" y="51.84" width="355.090909" height="332.64"/>
  </clipPath>
  <clipPath id="p7f49554dcc">
   <rect x="552.109091" y="51.84" width="355.090909" height="332.64"/>
  </clipPath>
 </defs>
</svg>
